# xmcd
#
# Track frame offsets:
#	150
#	16269
#	38552
#	53149
#	66622
#	82378
#	99500
#	118176
#	136698
#	152089
#	168721
#	188440
#	208183
#	225634
#	253287
#
# Disc length: 3607 seconds
#
# Revision: 0
# Processed by: cddbd v1.5.2PL0 Copyright (c) Steve Scherf et al.
# Submitted via: EasyCDDAExtractor 10.0.3.1
#
DISCID=d30e150f
DTITLE=Various Artist - Hc 2009 - 39
DYEAR=2009
DGENRE=Country
TTITLE0=Telluride - Stay
TTITLE1=Rascal Flatts - Why
TTITLE2=Bobby Mcdowell - Too Close To Call
TTITLE3=Mikayla Lee - I Don't Need Your Lovin'
TTITLE4=David St. Romain - That's Love  ( Radio Single )
TTITLE5=Justin Moore - Small Town Usa  ( Friday Night Live Version )
TTITLE6=Sammy Sadler  Feat. Steve Wariner - I'll Always Have Denver
TTITLE7=Teena Marie - You Baby  ( Radio Edit )
TTITLE8=Whitney Houston - Million Dollar Bill  ( Album Version )
TTITLE9=Whitney Houston - I Didn't Know My Own Strength
TTITLE10=Kirk Whalum  Feat. Doc Powell - You Are Everything  ( Radio Edit One 
TTITLE10=)
TTITLE11=Kirk Whalum  Feat. Doc Powell - You Are Everything  ( Radio Edit Two 
TTITLE11=)
TTITLE12=Melba Moore and  Phil Perry - Weakness  ( Radio Edit )
TTITLE13=Russ Kunkel - Don't Let Me Be Lonely Tonight
TTITLE14=Al Jarreau - Excellent Adventure
EXTD=
EXTT0=
EXTT1=
EXTT2=
EXTT3=
EXTT4=
EXTT5=
EXTT6=
EXTT7=
EXTT8=
EXTT9=
EXTT10=
EXTT11=
EXTT12=
EXTT13=
EXTT14=
PLAYORDER=
